HIERARCHY
ROOT Hips
{
    OFFSET 0.000000 0.000000 0.000000
    CHANNELS 6 Xposition Yposition Zposition Zrotation Xrotation Yrotation
    JOINT Spine
    {
        OFFSET -0.000000 0.083210 0.000000
        CHANNELS 3 Zrotation Xrotation Yrotation
        JOINT Spine1
        {
            OFFSET -0.000000 0.256334 0.000000
            CHANNELS 3 Zrotation Xrotation Yrotation
            JOINT Neck
            {
                OFFSET -0.000000 0.275576 0.002912
                CHANNELS 3 Zrotation Xrotation Yrotation
                JOINT Head
                {
                    OFFSET -0.000000 0.157287 0.020295
                    CHANNELS 3 Zrotation Xrotation Yrotation
                    End Site
                    {
                        OFFSET -0.000000 0.202951 0.000000
                    }
                }
            }
            JOINT LeftShoulder
            {
                OFFSET 0.041044 0.235234 -0.000041
                CHANNELS 3 Zrotation Xrotation Yrotation
                JOINT LeftArm
                {
                    OFFSET 0.117964 0.000000 0.000000
                    CHANNELS 3 Zrotation Xrotation Yrotation
                    JOINT LeftForeArm
                    {
                        OFFSET 0.291248 0.000000 0.000000
                        CHANNELS 3 Zrotation Xrotation Yrotation
                        JOINT LeftHand
                        {
                            OFFSET 0.245673 0.000000 0.000000
                            CHANNELS 3 Zrotation Xrotation Yrotation
                            End Site
                            {
                                OFFSET 0.152213 0.000000 0.000000
                            }
                        }
                    }
                }
            }
            JOINT RightShoulder
            {
                OFFSET -0.040052 0.235234 -0.000041
                CHANNELS 3 Zrotation Xrotation Yrotation
                JOINT RightArm
                {
                    OFFSET -0.117964 0.000000 0.000000
                    CHANNELS 3 Zrotation Xrotation Yrotation
                    JOINT RightForeArm
                    {
                        OFFSET -0.291248 0.000000 0.000000
                        CHANNELS 3 Zrotation Xrotation Yrotation
                        JOINT RightHand
                        {
                            OFFSET -0.245673 0.000000 0.000000
                            CHANNELS 3 Zrotation Xrotation Yrotation
                            End Site
                            {
                                OFFSET -0.152213 0.000000 0.000000
                            }
                        }
                    }
                }
            }
        }
    }
    JOINT LeftUpLeg
    {
        OFFSET 0.101475 0.000000 0.000000
        CHANNELS 3 Zrotation Xrotation Yrotation
        JOINT LeftLeg
        {
            OFFSET -0.000000 -0.446535 0.000000
            CHANNELS 3 Zrotation Xrotation Yrotation
            JOINT LeftFoot
            {
                OFFSET -0.000000 -0.400037 0.000000
                CHANNELS 3 Zrotation Xrotation Yrotation
                JOINT LeftToeBase
                {
                    OFFSET -0.000000 -0.065959 0.152213
                    CHANNELS 3 Zrotation Xrotation Yrotation
                    End Site
                    {
                        OFFSET -0.000000 0.000000 0.040590
                    }
                }
            }
        }
    }
    JOINT RightUpLeg
    {
        OFFSET -0.101475 0.000000 0.000000
        CHANNELS 3 Zrotation Xrotation Yrotation
        JOINT RightLeg
        {
            OFFSET -0.000000 -0.446535 0.000000
            CHANNELS 3 Zrotation Xrotation Yrotation
            JOINT RightFoot
            {
                OFFSET -0.000000 -0.400037 0.000000
                CHANNELS 3 Zrotation Xrotation Yrotation
                JOINT RightToeBase
                {
                    OFFSET -0.000000 -0.065959 0.152213
                    CHANNELS 3 Zrotation Xrotation Yrotation
                    End Site
                    {
                        OFFSET -0.000000 0.000000 0.040590
                    }
                }
            }
        }
    }
}
MOTION
Frames:    8
Frame Time:    0.008333
-0.573549    0.956247    -0.876809    2.125403    -0.915369    0.970891    -2.068074    -2.625492    -1.556482    0.197714    2.894003    -0.508079    2.544930    2.311063    0.607457    0.341437    0.829196    0.972569    20.773951    -7.261512    -0.591457    -22.451799    3.186663    4.253874    0.359724    3.313428    3.897791    -0.111570    3.299891    1.357525    -15.785250    -5.267299    4.032194    20.416735    2.977949    -1.109976    -1.274123    1.074607    -0.905136    7.833835    0.787958    -4.038999    2.455352    6.596766    -1.118438    -0.181110    2.501719    0.226077    -4.487113    -6.570024    3.867974    0.152907    1.754804    -1.513238    -4.393280    3.633882    2.546723    2.312137    8.980370    7.127109    0.330665    -9.881142    -13.512421    0.051965    -2.312678    1.135168    
-0.573584    0.956225    -0.876644    2.119916    -0.916471    0.982616    -2.073468    -2.636575    -1.556174    0.199434    2.901922    -0.507945    2.540849    2.320089    0.596443    0.346550    0.817770    0.960110    20.779861    -7.269069    -0.591133    -22.478477    3.192656    4.263450    0.362004    3.343226    3.918772    -0.099959    3.329736    1.302714    -15.782181    -5.266976    4.018513    20.411007    2.985499    -1.116907    -1.274894    1.064988    -0.915746    7.831156    0.777939    -4.044434    2.464349    6.606187    -1.121368    -0.180456    2.502996    0.213573    -4.489244    -6.580616    3.873702    0.153472    1.755584    -1.518731    -4.385065    3.646951    2.538340    2.312409    8.981268    7.114837    0.325115    -9.888832    -13.496784    0.051677    -2.309406    1.129573    
-0.573617    0.956203    -0.876486    2.115110    -0.918099    0.995067    -2.078066    -2.645672    -1.559166    0.191581    2.916465    -0.508700    2.558136    2.301234    0.590962    0.337464    0.831989    0.957896    20.800356    -7.282196    -0.566791    -22.509706    3.186528    4.254492    0.378464    3.346336    3.921387    -0.109599    3.332155    1.322691    -15.766688    -5.279206    3.994450    20.395424    2.981013    -1.113884    -1.264690    1.071477    -0.924488    7.819298    0.785076    -4.040886    2.473794    6.613690    -1.127522    -0.181907    2.508683    0.200209    -4.488324    -6.593814    3.878617    0.153663    1.753013    -1.520946    -4.378396    3.685442    2.503760    2.309329    8.931744    7.147814    0.324197    -9.870722    -13.506725    0.051699    -2.315232    1.128808    
-0.573657    0.956188    -0.876337    2.110778    -0.921233    1.007947    -2.086848    -2.649830    -1.559250    0.196006    2.918582    -0.508694    2.557289    2.307230    0.581240    0.337116    0.826793    0.947980    20.802042    -7.282148    -0.568401    -22.528891    3.156704    4.256178    0.391659    3.313705    3.914574    -0.058606    3.299639    1.385013    -15.766725    -5.278022    3.977750    20.392847    2.971251    -1.115988    -1.261624    1.076959    -0.932028    7.801321    0.790695    -4.046522    2.481569    6.622633    -1.131151    -0.180058    2.512795    0.180350    -4.487507    -6.604418    3.891308    0.153994    1.761580    -1.523107    -4.370368    3.697432    2.494843    2.309013    8.938294    7.154309    0.322438    -9.881314    -13.514368    0.051573    -2.313802    1.126366    
-0.573693    0.956173    -0.876186    2.107631    -0.925452    1.021231    -2.095736    -2.651876    -1.560223    0.198182    2.917106    -0.509024    2.554609    2.318961    0.575514    0.349981    0.823272    0.940074    20.797686    -7.283351    -0.569656    -22.542500    3.135467    4.254840    0.420789    3.339579    3.896273    -0.190835    3.322934    1.418435    -15.759864    -5.279538    3.967760    20.385193    2.965044    -1.123878    -1.257925    1.078383    -0.926768    7.790579    0.795214    -4.008708    2.488257    6.633018    -1.141004    -0.178566    2.515895    0.185098    -4.495132    -6.611345    3.878593    0.153286    1.759871    -1.516331    -4.363829    3.709298    2.479238    2.308758    8.948571    7.159456    0.319071    -9.895555    -13.517570    0.051776    -2.317953    1.129907    
-0.573716    0.956163    -0.876039    2.102712    -0.931186    1.030641    -2.100701    -2.650636    -1.559635    0.201314    2.913961    -0.508861    2.551488    2.329543    0.568968    0.356077    0.818559    0.932313    20.786659    -7.278548    -0.570912    -22.547552    3.100826    4.251014    0.367292    3.336651    3.936836    0.065780    3.324818    1.327451    -15.761026    -5.285974    3.956935    20.386286    2.963801    -1.128304    -1.262170    1.079270    -0.933609    7.790361    0.795723    -4.012140    2.494154    6.645731    -1.149471    -0.175562    2.518728    0.187327    -4.495693    -6.621739    3.876393    0.152905    1.757950    -1.512814    -4.358025    3.721438    2.469220    2.312390    8.958194    7.160945    0.315523    -9.905046    -13.518133    0.051763    -2.320819    1.129011    
-0.573748    0.956150    -0.875890    2.096395    -0.938073    1.040115    -2.103888    -2.648891    -1.558804    0.197599    2.911677    -0.508444    2.561405    2.334507    0.562314    0.360130    0.828801    0.926443    20.784124    -7.273870    -0.571418    -22.554596    3.079340    4.245969    0.306946    3.286813    3.920478    0.487184    3.281824    1.291476    -15.754813    -5.290214    3.942328    20.384727    2.948507    -1.130395    -1.260651    1.082316    -0.929132    7.778345    0.798538    -4.022748    2.502885    6.660254    -1.159598    -0.173476    2.520782    0.185552    -4.499836    -6.631923    3.876917    0.153027    1.760730    -1.513658    -4.348364    3.735175    2.457128    2.311447    8.967887    7.180989    0.305827    -9.915099    -13.534232    0.051479    -2.319861    1.123007    
-0.573778    0.956134    -0.875743    2.089722    -0.944973    1.049612    -2.105577    -2.643777    -1.558166    0.192589    2.903723    -0.508080    2.567687    2.346916    0.554865    0.374011    0.829977    0.918101    20.775057    -7.258245    -0.570662    -22.548794    3.057768    4.232812    0.298861    3.288742    3.925976    0.412432    3.283079    1.261274    -15.746690    -5.286885    3.931473    20.382792    2.929094    -1.132639    -1.264640    1.085259    -0.924653    7.791454    0.800979    -4.024338    2.511317    6.674171    -1.163967    -0.170005    2.522694    0.175687    -4.497316    -6.639389    3.881076    0.153475    1.754369    -1.518913    -4.338439    3.747270    2.447260    2.310528    8.980227    7.173559    0.306511    -9.928306    -13.523543    0.051611    -2.323483    1.125116    
